<svg xmlns="http://www.w3.org/2000/svg" width="2030" height="470">
  <path fill="#FFF" d="M1579.7 271.28c-10-1.62-43.73-9.13-63.77-19.5-5.63-2.9-15.2-9.75-21.4-11-.9-.16-1.83-.3-2.8-.38 2.56-6.8 3.72-14.13 3.25-21.38-.4-5.98-2.04-12.25-6.44-16.33-4.4-4.1-11.2-4.7-15.3-.4 3-15.1-6.16-31.6-20.5-37.1s-31.75 2.7-39.55 15.9c2.7-7.2 4.7-15.1 2.6-22.5-2.2-7.4-9.7-13.6-17.2-11.8-2.2-4.3-4.7-8.8-9-10.8-4.3-2.1-11.9-.6-12.1 4.1-.2-4.9-3.9-9.4-8.7-10.6-4.8-1.2-8.7 2-11.2 6.2-3.1-9.3-7.5-18.3-14.5-25.1-7-6.8-16.7-11.3-26.4-10.3s-18.9 8.1-20.8 17.7c-2.8-1.5-6.5-1.4-9.2.3-2.7 1.7-2.1 4.6-1.9 7.8-15.6-2.7-32.4 3.4-42.6 15.4-10.2 12.1-13.1 29.8-7.8 44.7-5.3-3.8-12.5-4.7-18.5-2.4-6.1 2.4-10.8 7.9-12.2 14.2-1-3.8-4.9-6.6-8.8-6.2s-6.1 1.3-6.4 5.2c-14.6-22.2-44.9-32.4-70-23.7-25 8.7-41.5 35.6-39.2 62-9.1-5.8-20.5-7.7-31-5.3-10.4 2.4-19.8 9.2-25.5 18.4-3 5-4.9 11.5-2 16.5-6.5-4.3-16.5-3.1-21.9 2.6-13.4-5.4-15.7-2-28.9 3.9-19.8 8.9-38.8 8.9-53.3 8.9h43c46.8 0 67.8 12.2 97.1 4.6 40.2 11.1 82.3 10.3 122.4-1.1 13.4 6.9 29 6.6 42.7.2 32.7 8 67.1 7.2 99.4-2.1 7.1 3.6 16 2.9 23.1-.6 23.2 8.2 48.4 8.2 72.3 2.5 13.3 6.6 28.6 5.8 41.8-.7 22.1 6.4 45.6 6.1 67.9.3 9.9 3 21.7 2.7 31.6-.3 4.9-1.5 10.1-2.4 16-2.9h129c-41.2-1.7-82.5-4.6-123.5-9.5zM15.75 288.5c83.07 5.67 171.6-.7 254.8-3.7 26.67-.94 53.34 7.1 79.1.16 61.3 20.83 129.4 20.65 190.4-1.04 39.85 9.32 81.38 11.74 122.1 7.5 26.37-2.72 53.07 5.67 76.5-6.73 14.3 5.5 31.06 5.2 44.54-2.1 9 5.9 31.3-1.9 74.7-1.9-15.3-4.3-27.2.5-41.1-7.2-12.5-7-25.4-14.1-39.6-16.2-14.2-2.1-30.3-.4-38.7 11.2-19.2-11.9-46-12.7-66.8-3.9-4-11.8-21.4-17.6-32.4-11.6 1.2-12.9-6.8-26.2-18.8-31.2s-27-1.4-35.4 8.5c-3-4.4-8.9-6.6-14.1-5.2-5.1 1.4-7.6 3.1-7.9 8.4-7.4-15.9-20.4-29.6-36.8-35.7-16.4-6.1-36.2-3.9-49.5 7.4-13.4 11.3-19.9 30.8-12 46.5-10.9-13.3-28.4-20.9-45.6-19.9-17.2 1-34 11.3-43.3 25.8-7.5-9.1-22.3-11-31.8-4.1-3.9-8.7-16.6-11.3-23.2-4.4 3.4-10.3.7-22.4-6.8-30.3-7.5-7.9-16.5-9.7-27-6.9 1-6.2 2-12.6.7-18.7-1.3-6.2-5.5-12.1-11.6-13.6s-9.6 2.6-9.3 8.9c-9.7-16.2-28.7-26.3-47.5-25.2-18.8 1-36.5 13.2-44.3 30.3-5.7 12.5-5.4 26.9-.3 39.5-3.3-4.8-7.1-9.1-11.9-12.3-9-5.9-22.5-6.2-29.2 2.2-4.5 5.6-4.9 13.6-2.7 20.5 2.1 6.8 5.5 13.5 9.7 19.3-3.2-4.8-9.1-7.7-14.8-7.2s-10.9 3.9-13.1 9.2c-6.7-5-16-4-24.2-2.7-30.1 4.7-43.6 22.6-73.5 26.1"/>
  <path fill="#FFF" d="M2010.6 205.8c-6.8-2.87-16.96 0-19.17 7.07-3.05-3.24-10.12-1.83-12.13 2.15 1.34-3.83-1.06-8.54-4.96-9.7-3.88-1.14-9.06.6-10.02 4.53 2.25-6.16 3.95-12.63 3.86-19.2-.1-6.56-2.1-13.27-6.53-18.13-4.43-4.85-11.45-7.53-17.8-5.86s-11.33 7.43-10.44 13.94c-3.4-3.6-9.2-4.6-13.6-2.36-4.4 2.25-7 7.57-6.1 12.43-1.1-1.68-3.1-2.65-5.1-2.4-1.9.24-3 1.96-3.6 3.86-.1-3.83-.7-7.78-2.7-11-2-3.24-5.9-5.58-9.6-4.87-3.7.7-6.9 4.46-5.2 7.88-6.3-4.87-15.3-6.1-22.8-3.1-7.4 3-12.9 10.12-14.1 18.04-.1-4.04-2.5-7.93-6.1-9.83-3.5-1.9-8.2-2.6-11.7-.46.6-2.3-.2-4.9-1.9-6.5-1.7-1.6-4.3-2.2-6.5-1.5 1-4.2-.4-9.4-3.9-11.8 1.7-3.5 1.3-7.9-1.1-10.9-2.3-3.1-6.7-5.7-10.5-5 .5-6.4-3.2-12.8-8.9-15.6-5.7-2.8-13.6-1.5-18.3 2.8-2.4-10.9-14.3-18-25.4-17.3-11.1.7-21.1 7.7-27.9 16.6-6.6 8.7-10.2 19.5-5.8 29.5-4.7-1.7-10.5 2.4-10.5 7.4-2.4-1.1-6 2.8-5.1 5.3-7.3-3.7-16.7-2.5-22.9 2.8-6.2 5.3-8.2 14.4-5.7 22.2-3-3.4-8.1-4.8-12.4-3.5s-7.9 5.7-8.4 10.2c-2.1-1.8-5.2-2.2-7.8-1.1-2.5 1.1-4.6 4.7-4.7 7.4-3.9-16.2-25-22.8-40.7-17.3-15.7 5.5-28.2 19.8-38.6 32.8h18.3c25.6 6.5 52.3 8.3 78.5 5.2 3.1 3 9.1 2.5 12.7 0 1.6-1.1 2.8-2.7 4.6-3.3 3.1-1.1 6.3.9 9.3 2.1 7.5 3.2 16.7 1.7 22.8-3.6 12.8 11.3 33.2 14.6 47.5 5.4 2.5 2.7 9.2 1.9 12.7 1.2 3.6-.7 7.1-2.2 10.7-2.4 4.1-.2 8.1 1.3 12.1 2.1 4.1.8 8.7.8 11.8-1.9 13 7 30.3 6.5 43.5-.3 6.8 2.9 14.8 2.5 21.5-.7 3.6 3.7 10.2 4.5 14.3 1.3 3 2.3 7.6 2.3 10.6-.2 17.5 9.1 40.8 8.1 58.2-1.1 11.1 6.5 26.2 7.8 38.2 3 2.1-.9 4.4-2.2 6-3.8 2 .9 4.1 1.3 6.9.4 7.1-2.4 13-8.3 14.4-15.6s-2.3-15.4-9.1-18.3z"/>
  <path fill="#2177C5" d="M2004.73 220.7c-16.78 4.23-37.13 3.6-54.1 1.22-8.1-1.15-16.27-2.64-24.47-2.7-8.4-.07-14.74 3.52-22.46 4.5-16.44 2.06-30.88-10.9-47.02-12.14-15.5-1.2-27.56 9.83-42.53 11.35-17.8 1.8-35.7-7.52-53.26-9.23-12.2-1.18-25.1-1.95-36.8-4.8-20.3-4.88-38.4-17.02-54-31.25-6.7-6.06-12.1-11.62-16.5-19.44-4-7.1-6.5-18.6-14.6-20-5.8-1-10.6 7.9-17.1 3.5-2.9-1.9-3.2-7.8-4.3-10.9-3.3-9.4-9.8-15-14.8-24-4.5-8-4.4-18.2-9.3-26-5-8-10.9-12.1-14.4-21.7-7-19.2-12.7-33.7-25.8-50.4-5-6.3-5.6-10.1-13.3-7.6-7.2 2.4-9.1 6.9-17.7 8.1-6.2.9-4.3-1-11.2 3.1-4.2 2.5-8.8 6.3-13.9 5.8-.4-3.8-1.9-6.6-3.4-10.1-4.8-11.2-7.8-9.4-14 1-9.8 16.5-8.3 36.8-21 52.3-7.6 9.3-19.1 17.6-30.6 21.1-4.8 1.5-13.1 0-17.3 2-5.5 2.6-2.6 2.8-5.2 8-4.3 8.4-8.5 15.6-14.6 23.1-9.5 11.6-9.3 13.8-11.3 27.9-1.4 9.9-8.6 20-17.3 26.1-9.1 6.4-24.1 4.6-34.9 2-8.4-2-9.7-4-16.9.2-4.7 2.8-11.7 10.4-15.1 13.8-10.2 10.3-13.9 18.7-28.8 23-10.3 2.9-22.3-1-32.3 2-10.5 3.2-13.1 16.1-22 22.7-10.7 8-26.2 6.3-38 12.1-9.4 4.6-16.8 5.1-26.3 8-7.8 2.3-14.1 9.5-22 12.3-10.8 3.8-23.8 4.8-35.3 6.9-12.2 2.3-24.4 2.6-36.9 4.1-15.6 1.8-30.6 6.6-46.5 5-10.3-1-19.9-5-30.1-6-11.3-1.1-22.6 1-33.9 1-13.3 0-26.2-2.3-40.2-4.9-17.4-3.2-24.6-1.9-39.7 5.5-9.4 4.6-25.2 5.5-36.1 3.3-10.8-2.2-16.2-10.9-25.2-13.8-8.6-2.8-21 2.5-29.1 4.1-10 1.9-20.2.4-30-1-18.9-2.7-39-9.4-57.7-11.8-9.1-1.2-14.6 3.2-22.5 5.1-7.9 1.9-18.3 1.1-25.9-.5-18.3-3.9-33.9-1.6-53.3.2-19.3 1.8-37.4 2.9-57.1 1-22.9-2.2-46.8-.5-70.1-2.1-22.7-1.5-45-10.9-67.3-14-14.4-1.9-29.2-.3-43.1 4-12 3.8-15.7 3.1-26-4.9-2.6-2-6.6-9.1-10.1-9.1-4.9 0-4.1 5.1-7.9 7.1-8.9 4.9-34.3 11.5-45.5 8.8-8-1.9-12.4-5.7-20.8-7-9-1.4-17.1-3.8-25.1-8.8-19.3-12-9.9-26.7-20.3-44-7 8.4-9.8 19.2-20.7 25.5-13.7 8-25.7 3.7-31.1-9.4-4.8-11.7-7-34.3-21-35-4.9-.3-9.6 4-15.9 3-5.8-.92-8.9-3.4-13.2-6.8-9.7-7.6-15.6-19.32-22.9-29.22-6-8.1-12.1-22.6-20.3-28.3-6.3-4.4-3.7-4.6-7.8 1.24-6.6 9.5-6.3 27.1-9.4 38.03-5 17.3-10.7 33.5-11.9 52-3.5 56.3-1.8 113.1-5 169.44-1.78 31.43-2.6 63.7-6 95l-.4 1.6h2025v-262c-8.1 3-17.5 10.6-25.3 12.6z"/>
  <path fill="#FFF" d="M1650.24 149.9c2 6 12.38 4.36 17.3 9.76 13.2 14.5 11.86 26.75 17.26 30.06-13.3-.9-14.84-25.4-42.66-21.3-7.4 1.08-2.26-12.37-8.16-17.5-4.55-3.98-7.95-10.12-14.66-8.86 1.12 5.42-2.66 22.2 1.86 24.85-7.52-1.5-10.36-19.9-14.1-33-2.37-8.3-8.18-24-17.83-27.9-.46 9.2 5.03 27.4-4 32.9-.86-15.5 2.2-42.3-12.22-52.7-14.05-10.1-31.68-6.3-40.3 7.1-5 7.7-9.57 8.5-15.08 14.5-5.1 5.6-4.7 14.1-9.53 20.3-9.46 12.2-28.15 14.4-35.22 26.9 8.87 1.6 22.7-3.1 32.05-3.8 10.02-.7 13.62-3.7 18.02-13.1 2.54 5.5 4 29.7 15.8 18.2 5.4-5.3 1.87-22.7 2.44-29.9 4 6.2 1.4 15.7 5.1 23 4.1 7.9 10.6 12.4 17.8 16.8 7.4 4.6 12.7 7.6 18.3 14.9 8.3 11 14.2 4.8 24.6 16.1-2.2-3.6-12.8-3-16.3-5-14.1-8.1-27.9-19.2-44.5-21.7-20.1-3-42.1 4.5-61.1-.1-6.4-1.5-13.6-6.2-21.1-3.9-7.4 2.2-12.3 11.2-19 15.8-6.9 4.8-12.4 10.6-19.1 15.2-9.3 6.5-21.2 1.4-29.8 9.2-7.8 9.1-9.6 8.5-18.2 8.9-9.6.4-16.6 2-25.2 6.2 10.3-6.5 15.5-12.1 26.9-12.3 13-.2 25.6-31.5 34.8-41.8 9-10.1 21.2-15.6 26.9-29.1 4-9.4 1.4-31.7 13.9-34.8-10.9 19.9 7.9 12.9-4.9 31.9-3.3 4.9-4.7 13.5-.5 17.5-.9-4.1-1.2-4.4 2-9.7 4.2-7.1 7.8-5.8 9.9-10.5 3.8-8.4 1.2-20.3 2.8-29.2 2-11 10.7-17.6 13-28.1 1.2-5.5 0-10.7 2-16 2-5.1 6.3-9.3 8-14.7-10.9 31.1 6.3 16.6-16.5 53.8-5.2 12.3 4.3 22.3 11.6 20 4.9-1.5 8.7-10.6 11.8-14 8-8.7 18.6-18.3 20.3-31 .9-6.7-3.4-13.6-1.2-19.3 3.5-9.2 11.7-8.3 17.3-3.7 3.9 3.1 11.1 17.6 16.1 7 2.6-5.4-6.5-12.9-4.8-19.7 9.3 4.7 5.9 11.7 11.9 17.7 6.3 6.2 19.2 3.9 24.2-2.2 26.5 25.1 19.7 40.2 32.1 59.4 12.3 19 16.8 17.2 35.8 28.6 0 0 3.7 4.8 5.2 9.3zM30.4 138.4c-1.83-5-1.88-8.96 1.1-12.98 3.36-4.53 4.3-6.55 5.53-12 .84-3.76 2-9.75 6.3-8.53 2.8.8 5.1 6.3 6.13 8.4 3.08 6.4 10.05 11.3 14.4 18.5 1.94 3.1 4.4 6.2 5.66 9.5 1.4 3.6 1.38 7.5 2.85 11.1 4.1 10.2 7.3 15.8 7.23 30-.54-5.6 8.27-1.9 6.52-9.6 2.58 1.4 3.22 11.9 6.55 13.3 2.3.9 3.48 6.4 3.4 9.3-.17 7.1 4.4 8.3 6.33 11.3-10.6-1.8-13.1-8.8-15.73-11.7-3.2-3.5-6.7-5-10.65-7.5-10.03-6.2-13.34-15.4-19.47-24.4.52 2.8.78 6.4 1.85 8.9-4.05-.4-10.93-11-12.84-14.7-.46 3.1-1.98 7.3-5.73 6.7-3-.5-3.3-4.8-5-5.9-2.22-1.3-5.17 0-7.44-1.5-3-1.9-3.9-9.3-2.6-12.7 1.1-3.1 5.1-3.2 5.5-7m85.4 38c3.1-2 5.8-2.9 9.1-1.3 3 1.5 5.4 3.3 7 6.2 1.6 3 1.9 6.4 2.7 9.5.6 2.6 1.6 5.5 1.5 8.2-3.8.2-5.6-9.1-7.2-11.5-2.4-3.4-2.4-.1-4.5-.5-3.1-.6-2-5.7-5.6-2.5-2.3 2.1-1.9 4.2-5 2-.7-.5-1.4-1.8-2.2-1.8-1.3-.1-2.5 2.6-3.8 2.2-1.9-.6-1.1-5.2-.3-6.4 1.1-2 3.8-2.7 5.8-3.1m67.1 32.2c.1-3.3 3.6-5.8 4.7-8.7.8-2.1.9-3.1 2.5-5 1-1.2 2.1-2.1 2.7-3.8 2.8-.5 3.9 5.5 4.5 7.5.2.9 1.7 3.6.2 3.5-1.8-.1-1.8-3.4-3.9-3.2-.4 1.8-2.1 2.9-3.4 1.1-.3 1.2.5 7.2-2.5 5-1.1 3.4-1.4 6.8-3.3 9.9-1.7-1.4-.2-4-2.3-5m1311-207.2c-.2 2.8.1 6.1.3 9 .3 3.9 2.4 5.8 3.6 9.3 1.3 3.8-1.8 6-2.3 9.6-.5 3.3.2 8.7 2.6 11 .2-1.4 1-2 1.4-3.3.6-2 .5-3.6.7-5.7.2-3.4 1.4-4.7 3.7-7 1.9-2 3.5-4.6 5.3-6.1 1.8-1.5 4.6-2.4 5.9-4.8.4-.8 1.5-2.3.7-3.3-1.4-1.8-1.9.5-3 1.1-2.6 1.5-3.8 2.2-6.7 2.6-7.9.9-5.7-5-8.7-10.4-.4-.7-.5-1.3-.7-2-.6-.3-1.3-.7-2-.8m-24.8 47.7c.1 3.9-1.6 6.1-3.1 9.5-1.2 2.6-1.5 5.3-2.8 7.8-2.8 5.3-6.2 6.7-10.7 9.4-2.7 1.6-4.5 3.8-6.9 5.5-2.4 1.6-4.8 2.1-7 4.4-4.4 4.4-6.9 10-9.9 15.3-1.4 2.4-5 8.3-7.7 8.6-.2-3.2.2-5 1.5-7.7 1-2.1 2.2-4.1 1.7-6.6-.6-3.3-3.6-12-8.4-9.7-3.4-6.1 9.8-4.2 12-5 2.4-.9 3.9-2.7 6.3-3.9 2.4-1.2 4.4-1.5 6.6-3.1 4.4-3.1 9.3-6.3 13.3-9.7 3.6-3 8.5-7.3 10.1-11.5.9-2.2 1.1-6 4.7-5.3"/>
  <path fill="#FFF" d="M1449.02 205.9c4.83-3.8 9.15-9.52 15.04-11.5 2.7-.9 5.45-1.47 8.26-1.74 2.42-.24 3.46-1.5 5.45-2.07 2.4-.7 3.52 1 5.32 2.3 2 1.5 4.8 2.9 7.2 3.4 4.7.9 5.2-6.8 10.8-5.5 5 1.1 9.4 4.2 13.9 7 4.7 2.8 10.4 5.4 15.7 7-5.2-.1-10.9-1-15.8-2.5-4-1.2-9.3-3.9-13.7-2.8-3.6.9-8.4 6.3-12.3 5.2-2-.6-3.4-3.4-5.3-4.1-1.1-.4-2.5 0-3.6-.3-.8-.2-1.6-1.1-2.3-1.2-1.8-.4-4 .6-5.8 1-1.9.3-3.1.2-4.8 0-4-.4-5.2 2-8 4.1-2.4 1.8-5.7 2.8-8.4 4-2.6 1.2-6.4 2.5-9.2 2 .4-2.5 3.8-3.5 5.9-4m-72-50.2c-1 .6-1.5 2-2.2 3-1.2 1.5-2.5 2.9-4 4.2-2.7 2.2-5.5 4-8.4 5.8-6.2 3.8-12.5 3.5-19.5 3.5-3.1 0-4.8 1.4-7.4 2.8-2.1 1-4.8 1.7-7.2 2-2.8.4-5.8-.9-8.6-.4-1.4.3-2.2 1.2-3.3 1.9-1.2.7-2.6.8-3.8 1.3 2.1 2.5 5.8 1 8.6.3 1.7-.5 2.5-.1 4.1.3 2.2.5 4.3-.9 6.5-1-.3.3-.7.8-1 1.1 1.8-.3 3.6-1.8 5.4-1.2 1.6.6 2.3 1.6 4.2.6-.5 2 3 1.2 4.1 1.1 2.1-.2 3.2-1.5 5.1-2.2 1.5-.5 2.9-.7 4.6-.7 1.1 0 3.5-.8 4.3-.3 1.1.6.7 2.6 1.5 3.7 1 1.3 2.7 1.2 4.2 1.6 3.4.7 7.6 3.8 11.3 2.2 3.5-1.5-1.3-3.8-1.3-6.2 0-1.5.8-3.1 1-4.5.2-1.7.3-3.2.9-4.7 1.2-3 3.3-5.8 4.5-8.9.6-1.8.8-3.7 1.3-5.5.3-1.2 1-2.6 1-3.9-.3-5.2-5.4 2.2-6.2 3.3"/>
  <path fill="#182F6D" d="M2030 292.5c-2.74 1.84-5.38 3.16-7.84 3.42-7.52.8-14.78-.45-22.1 1.2-9.03 2.03-16.62 5.45-25.82 1.88-9.8-3.8-15.8-13.8-25.52-17.86-10.8-4.54-20.24-5.54-31.8-6.23-20.8-1.2-36.33-20-55.1-27.7-10.32-4.2-22.06-7.1-33.15-3.4-5.7 1.9-10.1 6.3-16.1 7.3-4.8.8-10.98-1.4-15.78-2-12-1.5-20.1 5-29.7 10.7-11.4 6.8-21 8.9-34.4 8.4-7.9-.3-15.1-.5-19.9-7.5-4.5-6.6-6.7-11.5-12.2-17.6-9.9-10.8-18.6-22.6-27.4-34.3-3.9-5.1-7.5-11.3-12-15.7-3.8-3.7-9.5-4.7-14-7.2-5.4-2.8-9.5-6.2-12.9-10.8-2.6-3.5-3.2-4.1-7.6-2.7-3 .9-5.3 1.5-8.5 1.3-6.8-.3-10.6-4.5-18-3.9 2.5 4 7 6.2 9.7 10 1.9 2.6 4 7.5 4.6 10.7.4 1.9-.4 4.1 0 6 .5 2 1.6 2.7 2.6 4.3 3.7 6.1 2.3 10.8-3.3 14.3-5 3.1-11.1 5.7-16.9 6.5-5.9.8-26-3-31.9-4.4-9.1-2.1-1.5 14.3-10.9 14.3-7.1.1-21.1-7.7-27.3-10.6-16-7.3-23.7-11.7-40.8.8-10.4 7.5-29.7-7.3-37.5 2.4-5.3 6.4-4.2 8.1-5.5 16-1.1 6.2-8 11.6-14.8 13-6.3 1.3-15.5-3.1-21.3-5.4-4.6-1.8-9.6-7-14.7-6.4-2.1 5.7-1.5 12.6-8.8 15.3-8 3-16-4-23.2-4.6-10.6-.8-20.7 15.8-31.8 4.6-3.4-3.4-4.8-10.9-5.9-15.3-1.7-6.4-3.8-13.4-5.2-20-.9-4.7.8-12.5-4.3-15.3-5.8-3.2-8.8 5.3-11.7 9.7-6.9 10.5-14.7 19.7-21.4 30.5-3.4 5.6-9.2 9.3-13.3 14.5-6 7.5-11.5 14.5-19.7 20-9.6 6.4-21.5 10.8-29.4 18.6-3.9 3.8-8.7 7.9-13.2 11.4-5.3 4.1-9.6 8.6-14.6 12.9-6.4 5.5-13.9 8.3-18.1 15.9-4.6 8.2-7.2 16.7-14.8 23-10.5 8.7-25.9 15.7-39.5 16.2-18.2.5-41.7.1-58.3-6.7-5.2-2.1-11.1-9.1-15.9-10.4-5.2-1.4-7.8 4.1-10.1 8.9-10.7.7-19.7-1.6-29.8-2.6-22.5-2.1-44.2 3-65.6-6.5-7.8-3.4-12.6-8.5-20.9-10.3-6.2-1.3-15-3.6-20.1-7.1-7.8-5.5-5.8-8.8-11.2 1.5-2.8 5.4-7.6 10.9-12.2 15.2-12.6 11.5-35.3 18.9-51.6 11.1-10-4.8-16.6-15.4-26.1-21.2-10.1-6.3-18.7-10.9-27.3-19.2-9.5-9.3-22.3-12.8-28.9-25.5-4-7.8-4.7-9.7-10.4-2.5-3.5 4.4-8.3 9.4-12.4 14.2-7.2 8.5-17.4 16.7-27.2 22.3-10.3 5.9-13.8 6.2-23.4.5-13.9-8.3-25.2-12.7-42.1-9.9-7.9 1.3-10.3 2.9-17.3-.2s-14-6.1-20.9-9.8c-17.4-9.3-32.1-12.7-51.9-12.7-16.3 0-30.3 5.8-46.2.2-5.3-1.9-10.1-5.1-15.3-6.9-7.5-2.5-13.4-.1-20.6.65-5.9.6-13.4-1.5-18.9.7-5.1 2.1-6.8 9.66-11.3 11.8-4.5 2.1-14-.13-18.8-.6-5.5-.6-11.6-.8-17.5-.5-6.5.3-14 1.5-20.6.56-6.6-.9-22.9-3.13-23.8-10.74-3.2-.4-6.2.4-9.4 1.6-10.8 3.9-13.6 6.8-23.5 0-8.3-5.63-13.7-8.1-24.8-6-7 1.3-13.9 3.35-18.1 8.86-4.4 5.7-3.3 14.68-10 19-9.7 6.2-19.1-.8-24 10.97-2.8 6.5-5.2 25.23-14.9 10.8-4.7-7.06-4.2-20.3-8.5-28.57-8.2-15.8-17.6-29.57-21.8-46.17-2-7.7-2.6-19.1-9.2-25.06-8.6-7.65-13.6 2.1-24.7 0-10.9-2.1-15.8-10.8-22.7-19.2-4.3-5.24-7.2-13-13.88-10.9-4.4 1.4-6.4 9.9-11 11.87-18.9 8.1-31.8-30.5-41.4-40.5-3.9-4-5.2-6.7-11.6-6.2-5.8.5-5.3 4.6-10 6.6-13 5.4-10-9.4-21.9-9.4-.1 9-5.1 16.86-8.4 24.9-4.16 10.2-8.26 20.66-12 31v234h2030v-178z"/>
</svg>
