<?xml version="1.0" encoding="utf-8"?>
<!-- Generator: Adobe Illustrator 16.0.3, SVG Export Plug-In . SVG Version: 6.00 Build 0)  -->
<!DOCTYPE svg PUBLIC "-//W3C//DTD SVG 1.1//EN" "http://www.w3.org/Graphics/SVG/1.1/DTD/svg11.dtd">
<svg version="1.1" id="Layer_1" xmlns="http://www.w3.org/2000/svg" xmlns:xlink="http://www.w3.org/1999/xlink" x="0px" y="0px"
	 width="2030px" height="533px" viewBox="0 0 2030 533" enable-background="new 0 0 2030 533" xml:space="preserve">
<circle fill="#FFFFFF" cx="211.747" cy="54.81" r="3.977"/>
<circle fill="#FFFFFF" cx="95.912" cy="343" r="4.971"/>
<circle fill="#FFFFFF" cx="220.611" cy="450.83" r="4.971"/>
<circle fill="#FFFFFF" cx="1810.528" cy="84.163" r="4.972"/>
<circle fill="#FFFFFF" cx="1772.773" cy="411.473" r="6.214"/>
<circle fill="#FFFFFF" cx="783.5" cy="380.734" r="6.214"/>
<circle fill="#FFFFFF" cx="241.577" cy="292.313" r="3.977"/>
<circle fill="#FFFFFF" cx="916.035" cy="135.741" r="1.643"/>
<circle fill="#FFFFFF" cx="545.857" cy="204.154" r="1.643"/>
<circle fill="#FFFFFF" cx="1339.856" cy="311.001" r="1.643"/>
<circle fill="#FFFFFF" cx="357.763" cy="131.484" r="1.643"/>
<circle fill="#FFFFFF" cx="97.555" cy="228.182" r="1.643"/>
<circle fill="#FFFFFF" cx="305.267" cy="422.455" r="1.643"/>
<circle fill="#FFFFFF" cx="875.411" cy="436.663" r="1.644"/>
<circle fill="#FFFFFF" cx="677.5" cy="450.83" r="1.643"/>
<circle fill="#FFFFFF" cx="1080.454" cy="379.091" r="1.644"/>
<circle fill="#FFFFFF" cx="1158.859" cy="243.344" r="1.643"/>
<circle fill="#FFFFFF" cx="1669.643" cy="202.51" r="1.643"/>
<circle fill="#FFFFFF" cx="1620.154" cy="89.135" r="1.643"/>
<circle fill="#FFFFFF" cx="1274.534" cy="95.945" r="1.643"/>
<circle fill="#FFFFFF" cx="1869.227" cy="154.057" r="1.643"/>
<circle fill="#FFFFFF" cx="1723.588" cy="268.482" r="2.354"/>
<circle fill="#FFFFFF" cx="1888.994" cy="430.188" r="1.644"/>
<circle fill="#FFFFFF" cx="1764.916" cy="482.139" r="1.643"/>
<circle fill="#FFFFFF" cx="1419.075" cy="435.02" r="1.643"/>
<circle fill="#FFFFFF" cx="1205.522" cy="432.647" r="3.977"/>
<circle fill="#FFFFFF" cx="1557.478" cy="276.054" r="3.978"/>
<circle fill="#FFFFFF" cx="1662.001" cy="410.747" r="3.978"/>
<circle fill="#FFFFFF" cx="1417.431" cy="152.413" r="3.977"/>
<circle fill="#FFFFFF" cx="516.918" cy="432.647" r="3.978"/>
<circle fill="#FFFFFF" cx="605.788" cy="131.484" r="4.288"/>
<circle fill="#FFFFFF" cx="479.329" cy="30.578" r="3.977"/>
<circle fill="#FFFFFF" cx="843.483" cy="92.615" r="1.643"/>
<circle fill="#FFFFFF" cx="662.486" cy="24.958" r="1.643"/>
<circle fill="#FFFFFF" cx="1061.104" cy="57.669" r="3.978"/>
</svg>
